<svg xmlns="http://www.w3.org/2000/svg" width="16.845" height="18.811" viewBox="0 0 16.845 18.811">
  <g id="noun-dashboard-6214256" transform="translate(0.125 0.125)">
    <path id="Path_35592" data-name="Path 35592" d="M22.992,8.865H16V3.37h6.991V8.865ZM23.427,2.5H15.565a.435.435,0,0,0-.435.435V9.3a.435.435,0,0,0,.435.435h7.863a.435.435,0,0,0,.435-.435V2.935A.435.435,0,0,0,23.427,2.5Zm-5.283,9.809h4.848v7.883H18.144Zm5.283,8.753a.435.435,0,0,0,.435-.435V11.874a.435.435,0,0,0-.435-.435H17.709a.435.435,0,0,0-.435.435v8.752a.435.435,0,0,0,.435.435ZM8.137,14.7h6.991v5.5H8.137Zm-.87,5.93a.435.435,0,0,0,.435.435h7.863A.435.435,0,0,0,16,20.626V14.261a.435.435,0,0,0-.435-.435H7.7a.435.435,0,0,0-.435.435ZM8.137,3.37h4.848v7.882H8.137ZM7.7,12.122H13.42a.435.435,0,0,0,.435-.435V2.935A.435.435,0,0,0,13.42,2.5H7.7a.435.435,0,0,0-.435.435v8.752a.435.435,0,0,0,.435.435Z" transform="translate(-7.267 -2.5)" fill="#fff" stroke="#fff" stroke-width="0.25" fill-rule="evenodd"/>
  </g>
</svg>
