<svg id="filter_11_" data-name="filter (11)" xmlns="http://www.w3.org/2000/svg" width="20.621" height="12.373" viewBox="0 0 20.621 12.373">
  <path id="Path_309" data-name="Path 309" d="M0,5.031A1.031,1.031,0,0,1,1.031,4H19.59a1.031,1.031,0,0,1,0,2.062H1.031A1.031,1.031,0,0,1,0,5.031Z" transform="translate(0 -4)"/>
  <path id="Path_310" data-name="Path 310" d="M3,10.031A1.031,1.031,0,0,1,4.031,9H16.4a1.031,1.031,0,0,1,0,2.062H4.031A1.031,1.031,0,0,1,3,10.031Z" transform="translate(0.094 -3.845)"/>
  <path id="Path_311" data-name="Path 311" d="M8.031,14a1.031,1.031,0,1,0,0,2.062h4.124a1.031,1.031,0,0,0,0-2.062Z" transform="translate(0.217 -3.689)"/>
</svg>
