<svg xmlns="http://www.w3.org/2000/svg" xmlns:xlink="http://www.w3.org/1999/xlink" width="154.087" height="41.063" viewBox="0 0 154.087 41.063">
  <defs>
    <linearGradient id="linear-gradient" x1="0.5" x2="0.5" y2="1" gradientUnits="objectBoundingBox">
      <stop offset="0" stop-color="#80e3fb"/>
      <stop offset="1" stop-color="#5594d0"/>
    </linearGradient>
  </defs>
  <g id="Group_522" data-name="Group 522" transform="translate(-21.905 -12.433)">
    <g id="Group_521" data-name="Group 521" transform="translate(71.992 14.433)">
      <text id="ESG" transform="translate(0 -2)" fill="#fff" font-size="20" font-family="SegoeUI, Segoe UI"><tspan x="0" y="22">ESG</tspan></text>
      <text id="Claims_Review" data-name="Claims Review" transform="translate(0 20.063)" fill="#fff" font-size="14" font-family="SegoeUI, Segoe UI"><tspan x="0" y="15">Claims Review</tspan></text>
    </g>
    <g id="Group_5" data-name="Group 5" transform="translate(-136.406 -103.687)">
      <g id="Group_1" data-name="Group 1" transform="translate(177.297 126.459)">
        <path id="Path_1" data-name="Path 1" d="M245.962,153a1.676,1.676,0,1,0-2.09,1.619.434.434,0,0,0-.03.151V176.28a.444.444,0,0,0,.888,0V154.768a.439.439,0,0,0-.03-.151A1.675,1.675,0,0,0,245.962,153Zm-1.676.817A.817.817,0,1,1,245.1,153,.818.818,0,0,1,244.285,153.815Z" transform="translate(-242.437 -151.15)" fill="url(#linear-gradient)"/>
        <path id="Path_2" data-name="Path 2" d="M243.7,176.312a.617.617,0,0,1-.616-.616V154.184c0-.011,0-.022,0-.032a1.848,1.848,0,1,1,1.23,0c0,.011,0,.022,0,.032V175.7A.617.617,0,0,1,243.7,176.312Zm0-25.4a1.5,1.5,0,0,0-.371,2.956.172.172,0,0,1,.119.225.274.274,0,0,0-.02.092V175.7a.272.272,0,1,0,.544,0V154.184a.27.27,0,0,0-.02-.092.172.172,0,0,1,.119-.226,1.5,1.5,0,0,0-.371-2.956Zm0,2.493a.989.989,0,1,1,.989-.989A.99.99,0,0,1,243.7,153.4Zm0-1.633a.645.645,0,1,0,.645.645A.646.646,0,0,0,243.7,151.769Z" transform="translate(-241.852 -150.566)" fill="url(#linear-gradient)"/>
      </g>
      <g id="Group_2" data-name="Group 2" transform="translate(158.312 119.369)">
        <path id="Path_3" data-name="Path 3" d="M199.2,135.538c.185-1.619-.212-4.393-2.858-5.11a5.243,5.243,0,0,0-1.178-3.223,4.881,4.881,0,0,0-3.323-1.578c-.3-.9-1.346-2.929-4.711-2.721a4.544,4.544,0,0,0-3.451-2.206,4.5,4.5,0,0,0-3.076.97,3.137,3.137,0,0,0-3.225-1.513,3.861,3.861,0,0,0-2,.82c-.012.009-.026.011-.037.021s-.043.039-.087.082a3.99,3.99,0,0,0-.685.783c-.054.071-.11.149-.166.228-1.2-.746-4.2-2.208-7.138-.486l-.081.048a5.7,5.7,0,0,0-3.089,5.3,4.6,4.6,0,0,0-2.31,1.8,5.087,5.087,0,0,0-.555,3.772,4.311,4.311,0,0,0-2.16,3.906,3.936,3.936,0,0,0,2.406,3.777c-.133.927-.271,3.25,1.325,4.738,1.342,1.25,2.732,1.463,5.359.762a7.174,7.174,0,0,0,2.716,3.771,7.874,7.874,0,0,0,6.13.925.511.511,0,0,0,.275-.154.428.428,0,0,0,.044-.053l.017-.024a.437.437,0,0,0,.067-.159l0-.023a.406.406,0,0,0,.013-.064V139.219a1.676,1.676,0,1,0-.888,0v6.408h-3.081v-2.632a1.676,1.676,0,1,0-.888,0v3.52h3.969v2.918a6.765,6.765,0,0,1-5.072-.8,6.3,6.3,0,0,1-2.433-3.656.516.516,0,0,0-.652-.4c-2.89.844-3.875.55-4.876-.384-1.549-1.443-.959-4.122-.953-4.148a.516.516,0,0,0-.272-.578c-1.584-.792-2.216-1.663-2.179-3.006a3.2,3.2,0,0,1,1.879-3.148.515.515,0,0,0,.342-.61,4.324,4.324,0,0,1,.327-3.383,3.672,3.672,0,0,1,2.112-1.494.515.515,0,0,0,.4-.613c-.006-.028-.56-2.792,2.556-4.672l.071-.042c2.433-1.424,5.037-.154,6.067.476a8.933,8.933,0,0,0-1.045,3.449,5.047,5.047,0,0,0-2.418,1.282.516.516,0,0,0,.737.722,3.846,3.846,0,0,1,2.44-1.049,4.3,4.3,0,0,1,2.355.67.516.516,0,0,0,.619-.825,5.209,5.209,0,0,0-2.691-.868,7.92,7.92,0,0,1,.989-3.018,9.416,9.416,0,0,1,1.091-1.473,2.852,2.852,0,0,1,1.566-.678,2.113,2.113,0,0,1,2.414,1.461.516.516,0,0,0,.85.236,3.769,3.769,0,0,1,2.812-1.152,3.536,3.536,0,0,1,2.788,1.931.518.518,0,0,0,.525.3c3.6-.371,4.02,2.12,4.035,2.223a.516.516,0,0,0,.483.444,4.058,4.058,0,0,1,2.97,1.247,4.4,4.4,0,0,1,.928,2.922.516.516,0,0,0,.427.553c2.973.507,2.438,4.114,2.414,4.266a.516.516,0,0,0,.123.425,3.574,3.574,0,0,1,1.089,2.6,2.754,2.754,0,0,1-.505,1.36,5.459,5.459,0,0,0-3.569-2.467.516.516,0,0,0-.22,1.008,4.456,4.456,0,0,1,3.206,2.546.492.492,0,0,0,.042.1l.031.05a6.554,6.554,0,0,1,.312.84.511.511,0,0,0,.08.16,5.518,5.518,0,0,1-.98,4.483,5.391,5.391,0,0,1-4.673,2.657,4.152,4.152,0,0,0-1.257-2.8,5.442,5.442,0,0,0,1.713-2.753.516.516,0,0,0-.993-.28,4.354,4.354,0,0,1-1.7,2.488,4.738,4.738,0,0,1-2.389.8.516.516,0,0,0,0,1.032,5.7,5.7,0,0,0,2.467-.677,3.058,3.058,0,0,1,1.144,2.454.506.506,0,0,0-.043.173c-.072,1.352-1.718,2.652-5.251,2.492-3.275-.143-3.323-2.157-3.318-2.389a.511.511,0,0,0-.1-.316v-6.966h3.922v-3.177a1.676,1.676,0,1,0-.888,0v2.288h-3.034v-6.378a1.676,1.676,0,1,0-.888,0v14.321a.509.509,0,0,0-.046.188c0,.033-.085,3.267,4.3,3.46q.322.014.625.014c3.395,0,5.039-1.29,5.536-2.674a.5.5,0,0,0,.181-.273,6.375,6.375,0,0,0,5.542-3.113,6.213,6.213,0,0,0,.768-6.3,3.9,3.9,0,0,0,1.007-2.261A4.42,4.42,0,0,0,199.2,135.538Zm-23.033,2.073a.817.817,0,1,1,.817.817A.818.818,0,0,1,176.166,137.61Zm-3.152,4.592a.817.817,0,1,1,.817-.817A.818.818,0,0,1,173.014,142.2Zm13.006-4.356a.817.817,0,1,1,.817.817A.817.817,0,0,1,186.02,137.847Zm-3.922-4.09a.817.817,0,1,1,.817.817A.818.818,0,0,1,182.1,133.757Z" transform="translate(-158.897 -119.954)" fill="url(#linear-gradient)"/>
        <path id="Path_4" data-name="Path 4" d="M186.768,152.934q-.307,0-.632-.014c-4.557-.2-4.47-3.6-4.468-3.638a.66.66,0,0,1,.046-.216v-14.16a1.848,1.848,0,1,1,1.232,0v6.081h2.69V139a1.848,1.848,0,1,1,1.232,0v3.051a.172.172,0,0,1-.172.172h-3.75v6.743a.675.675,0,0,1,.1.372c-.005.21.042,2.076,3.154,2.212,3.413.154,5-1.058,5.072-2.329a.648.648,0,0,1,.04-.191,2.97,2.97,0,0,0-.98-2.227,5.882,5.882,0,0,1-2.458.65.688.688,0,0,1,0-1.375,4.558,4.558,0,0,0,2.292-.773,4.185,4.185,0,0,0,1.633-2.393.688.688,0,0,1,1.324.372,5.659,5.659,0,0,1-1.621,2.71,4.324,4.324,0,0,1,1.155,2.628,5.276,5.276,0,0,0,4.375-2.582,5.36,5.36,0,0,0,.964-4.315.673.673,0,0,1-.085-.184,6.276,6.276,0,0,0-.3-.817l-.017-.024a.481.481,0,0,1-.051-.112,4.3,4.3,0,0,0-3.09-2.463.688.688,0,0,1-.222-1.253.676.676,0,0,1,.517-.091,5.6,5.6,0,0,1,3.529,2.318,2.51,2.51,0,0,0,.337-1.057,3.413,3.413,0,0,0-1.046-2.469.684.684,0,0,1-.164-.566c.023-.145.529-3.591-2.274-4.07a.692.692,0,0,1-.57-.737,4.216,4.216,0,0,0-.886-2.794,3.894,3.894,0,0,0-2.85-1.188.689.689,0,0,1-.644-.592c-.015-.1-.407-2.431-3.847-2.075a.7.7,0,0,1-.7-.406,3.355,3.355,0,0,0-2.648-1.829,3.6,3.6,0,0,0-2.677,1.106.688.688,0,0,1-1.134-.315,1.942,1.942,0,0,0-2.228-1.337,2.688,2.688,0,0,0-1.473.637,9.425,9.425,0,0,0-1.052,1.423,7.715,7.715,0,0,0-.948,2.779,5.326,5.326,0,0,1,2.6.891.688.688,0,1,1-.826,1.1,4.171,4.171,0,0,0-2.252-.636,3.689,3.689,0,0,0-2.318,1,.7.7,0,0,1-.971.007.689.689,0,0,1-.011-.971,5.266,5.266,0,0,1,2.383-1.3,9.073,9.073,0,0,1,.975-3.243c-1.07-.624-3.5-1.711-5.752-.391l-.069.041a4.488,4.488,0,0,0-2.476,4.489.691.691,0,0,1-.1.519.681.681,0,0,1-.437.3,3.525,3.525,0,0,0-2,1.417,4.161,4.161,0,0,0-.306,3.252.691.691,0,0,1-.457.814,3.024,3.024,0,0,0-1.76,2.989c-.034,1.265.57,2.091,2.084,2.848a.686.686,0,0,1,.362.771c-.005.025-.564,2.617.9,3.983.952.888,1.9,1.166,4.711.345a.688.688,0,0,1,.869.534,6.155,6.155,0,0,0,2.36,3.545,6.527,6.527,0,0,0,4.8.8v-2.6H172.01a.2.2,0,0,1-.2-.172v-3.394a1.849,1.849,0,1,1,1.232,0v2.334h2.737v-6.11a1.848,1.848,0,1,1,1.232,0v10.58a.3.3,0,0,1-.013.085l-.176,0,.168.035a.6.6,0,0,1-.093.221l-.023.033a.511.511,0,0,1-.061.073.671.671,0,0,1-.36.2,8.041,8.041,0,0,1-6.26-.952,7.287,7.287,0,0,1-2.733-3.706c-2.574.664-3.989.437-5.363-.844a5.6,5.6,0,0,1-1.394-4.771,4.086,4.086,0,0,1-2.393-3.874,4.48,4.48,0,0,1,2.141-3.991,5.2,5.2,0,0,1,.6-3.774,4.765,4.765,0,0,1,2.277-1.827,5.905,5.905,0,0,1,3.178-5.326l.082-.049c2.925-1.712,5.9-.357,7.179.4.026-.035.051-.069.076-.1a4.122,4.122,0,0,1,.708-.808c.041-.04.077-.073.086-.081a.357.357,0,0,1,.061-.039,4.011,4.011,0,0,1,2.067-.845,3.308,3.308,0,0,1,3.294,1.438,4.6,4.6,0,0,1,3.046-.9,4.728,4.728,0,0,1,3.527,2.2c3.284-.166,4.4,1.778,4.745,2.739a5.01,5.01,0,0,1,3.326,1.624,5.362,5.362,0,0,1,1.214,3.2c2.439.735,3.073,3.223,2.871,5.188a4.551,4.551,0,0,1,1.181,3.259,4.07,4.07,0,0,1-.975,2.276,6.417,6.417,0,0,1-.828,6.364,6.61,6.61,0,0,1-5.55,3.192H192.6a.661.661,0,0,1-.153.2C192.124,151.052,190.934,152.934,186.768,152.934Zm-4.439-21.268a1.5,1.5,0,0,0-.4,2.948.172.172,0,0,1,.126.166V149.1a.176.176,0,0,1-.015.071.33.33,0,0,0-.031.124c0,.125-.048,3.1,4.14,3.281.212.009.418.013.618.013,4.021,0,5.1-1.79,5.374-2.56a.172.172,0,0,1,.058-.079.336.336,0,0,0,.119-.181.172.172,0,0,1,.166-.127h0a6.169,6.169,0,0,0,5.395-3.037,6.048,6.048,0,0,0,.755-6.127.173.173,0,0,1,.027-.189,3.752,3.752,0,0,0,.964-2.16,4.261,4.261,0,0,0-1.149-3.068.17.17,0,0,1-.039-.129c.048-.416.374-4.084-2.733-4.925a.172.172,0,0,1-.127-.16,5.061,5.061,0,0,0-1.136-3.116,4.718,4.718,0,0,0-3.21-1.519.173.173,0,0,1-.146-.117c-.279-.85-1.289-2.8-4.537-2.6a.167.167,0,0,1-.158-.082,4.4,4.4,0,0,0-3.321-2.124,4.319,4.319,0,0,0-2.957.937.174.174,0,0,1-.136.03.17.17,0,0,1-.114-.08,2.982,2.982,0,0,0-3.058-1.431,3.7,3.7,0,0,0-1.91.783.366.366,0,0,1-.049.03h0a.685.685,0,0,1-.064.063,3.853,3.853,0,0,0-.661.755c-.059.078-.113.154-.168.232a.172.172,0,0,1-.231.046c-1.136-.706-4.087-2.165-6.96-.484l-.08.048a5.549,5.549,0,0,0-3.006,5.137.171.171,0,0,1-.113.172,4.446,4.446,0,0,0-2.223,1.734,4.924,4.924,0,0,0-.532,3.647.172.172,0,0,1-.087.183,4.128,4.128,0,0,0-2.071,3.76,3.768,3.768,0,0,0,2.318,3.622.172.172,0,0,1,.087.175,5.336,5.336,0,0,0,1.272,4.588c1.3,1.21,2.658,1.4,5.2.722a.172.172,0,0,1,.208.115,6.979,6.979,0,0,0,2.648,3.68,7.713,7.713,0,0,0,6,.9.341.341,0,0,0,.184-.1l.034-.042a.3.3,0,0,0,.05-.111.55.55,0,0,1,.013-.06v-10.7a.172.172,0,0,1,.126-.166,1.5,1.5,0,1,0-.8,0,.172.172,0,0,1,.126.166v6.408a.172.172,0,0,1-.172.172h-3.081a.172.172,0,0,1-.172-.172v-2.632a.172.172,0,0,1,.126-.166,1.5,1.5,0,1,0-.8,0,.172.172,0,0,1,.126.166v3.348h3.8a.172.172,0,0,1,.172.172v2.918a.172.172,0,0,1-.143.17,6.931,6.931,0,0,1-5.2-.83,6.475,6.475,0,0,1-2.506-3.767.344.344,0,0,0-.434-.268c-2.972.868-3.993.555-5.042-.423-1.611-1.5-1.029-4.2-1-4.312a.343.343,0,0,0-.181-.386c-1.654-.827-2.313-1.744-2.274-3.165a3.369,3.369,0,0,1,1.995-3.306.346.346,0,0,0,.231-.408,4.487,4.487,0,0,1,.349-3.515,3.873,3.873,0,0,1,2.221-1.57.343.343,0,0,0,.268-.409,4.808,4.808,0,0,1,2.635-4.856l.071-.042c2.52-1.475,5.207-.157,6.245.477a.172.172,0,0,1,.061.229,8.731,8.731,0,0,0-1.025,3.383.172.172,0,0,1-.138.152,4.863,4.863,0,0,0-2.329,1.234.344.344,0,0,0,.006.485.353.353,0,0,0,.486,0,4.02,4.02,0,0,1,2.563-1.1,4.467,4.467,0,0,1,2.457.7.344.344,0,1,0,.414-.549,5.1,5.1,0,0,0-2.6-.834.171.171,0,0,1-.162-.192,8.05,8.05,0,0,1,1.011-3.084,9.489,9.489,0,0,1,1.122-1.513,3.032,3.032,0,0,1,1.663-.724,2.281,2.281,0,0,1,2.6,1.583.347.347,0,0,0,.24.24.343.343,0,0,0,.328-.081,3.938,3.938,0,0,1,2.947-1.2A3.714,3.714,0,0,1,185.936,123a.352.352,0,0,0,.35.2c3.752-.387,4.206,2.255,4.223,2.368a.345.345,0,0,0,.322.3,4.222,4.222,0,0,1,3.09,1.3,4.592,4.592,0,0,1,.97,3.046.347.347,0,0,0,.285.372c3.133.535,2.58,4.3,2.555,4.462a.343.343,0,0,0,.082.284,3.736,3.736,0,0,1,1.132,2.723,2.924,2.924,0,0,1-.536,1.445.167.167,0,0,1-.145.074.172.172,0,0,1-.141-.08,5.27,5.27,0,0,0-3.461-2.39.336.336,0,0,0-.257.045.344.344,0,0,0,.111.627,4.628,4.628,0,0,1,3.324,2.64c0,.006.015.041.018.047a.206.206,0,0,0,.013.034l.035.056a6.575,6.575,0,0,1,.329.879.328.328,0,0,0,.053.106.171.171,0,0,1,.028.06,5.681,5.681,0,0,1-1,4.619,5.588,5.588,0,0,1-4.821,2.733.172.172,0,0,1-.167-.157,3.97,3.97,0,0,0-1.2-2.686.172.172,0,0,1,0-.262,5.279,5.279,0,0,0,1.658-2.669.344.344,0,1,0-.662-.186,4.522,4.522,0,0,1-1.768,2.583,4.938,4.938,0,0,1-2.484.834.344.344,0,1,0,0,.688,5.508,5.508,0,0,0,2.386-.657.172.172,0,0,1,.172.005,3.236,3.236,0,0,1,1.225,2.59.171.171,0,0,1-.013.077.344.344,0,0,0-.03.116c-.077,1.44-1.785,2.818-5.43,2.654-3.439-.151-3.488-2.318-3.482-2.565a.342.342,0,0,0-.065-.212.172.172,0,0,1-.032-.1v-6.966a.172.172,0,0,1,.172-.172h3.75v-3a.172.172,0,0,1,.126-.166,1.5,1.5,0,1,0-.8,0,.172.172,0,0,1,.126.166v2.289a.172.172,0,0,1-.172.172h-3.034a.172.172,0,0,1-.172-.172V134.78a.172.172,0,0,1,.126-.166,1.5,1.5,0,0,0-.4-2.948Zm-9.9,10.122a.989.989,0,1,1,.989-.989A.99.99,0,0,1,172.429,141.789Zm0-1.633a.645.645,0,1,0,.645.645A.646.646,0,0,0,172.429,140.155Zm13.822-1.906a.989.989,0,1,1,.989-.989A.99.99,0,0,1,186.251,138.25Zm0-1.633a.645.645,0,1,0,.645.645A.646.646,0,0,0,186.251,136.617Zm-9.854,1.4a.989.989,0,1,1,.989-.989A.99.99,0,0,1,176.4,138.014Zm0-1.633a.645.645,0,1,0,.645.645A.646.646,0,0,0,176.4,136.38Zm5.931-2.221a.989.989,0,1,1,.989-.989A.99.99,0,0,1,182.329,134.159Zm0-1.633a.645.645,0,1,0,.645.645A.646.646,0,0,0,182.329,132.526Z" transform="translate(-158.312 -119.369)" fill="url(#linear-gradient)"/>
      </g>
      <g id="Group_3" data-name="Group 3" transform="translate(185.282 125.676)">
        <path id="Path_5" data-name="Path 5" d="M280.846,149.7a4.3,4.3,0,0,1,1.359,2.037.516.516,0,1,0,1.006-.227,5.253,5.253,0,0,0-1.7-2.6,4.842,4.842,0,0,0-3.3-1.024.516.516,0,0,0,.094,1.027A3.85,3.85,0,0,1,280.846,149.7Z" transform="translate(-277.575 -147.707)" fill="url(#linear-gradient)"/>
        <path id="Path_6" data-name="Path 6" d="M282.123,151.727a.684.684,0,0,1-.67-.536,4.171,4.171,0,0,0-1.3-1.944h0a3.672,3.672,0,0,0-2.414-.742.688.688,0,0,1-.123-1.37,5.03,5.03,0,0,1,3.428,1.065,5.44,5.44,0,0,1,1.753,2.689.688.688,0,0,1-.671.839Zm-1.75-2.742a4.475,4.475,0,0,1,1.415,2.129.348.348,0,0,0,.411.261.344.344,0,0,0,.26-.411,5.067,5.067,0,0,0-1.641-2.5,4.658,4.658,0,0,0-3.173-.984.344.344,0,0,0,.064.685,4.043,4.043,0,0,1,2.664.823Z" transform="translate(-276.99 -147.123)" fill="url(#linear-gradient)"/>
      </g>
      <g id="Group_4" data-name="Group 4" transform="translate(162.916 129.033)">
        <path id="Path_7" data-name="Path 7" d="M179.766,171.071a.5.5,0,0,0,.077.006.516.516,0,0,0,.509-.44,3.8,3.8,0,0,1,1.365-2.277,4.3,4.3,0,0,1,2.3-.834h.01a.516.516,0,0,0,.01-1.032,5.166,5.166,0,0,0-2.507.758,3.242,3.242,0,0,1-.564-1.5,2.49,2.49,0,0,1,.771-2.177.516.516,0,1,0-.619-.825,3.5,3.5,0,0,0-1.179,3.093,4.291,4.291,0,0,0,.763,2.023,4.994,4.994,0,0,0-1.371,2.615A.516.516,0,0,0,179.766,171.071Z" transform="translate(-179.155 -162.479)" fill="url(#linear-gradient)"/>
        <path id="Path_8" data-name="Path 8" d="M179.258,170.666a.661.661,0,0,1-.1-.008.687.687,0,0,1-.578-.782,5.2,5.2,0,0,1,1.319-2.612,4.407,4.407,0,0,1-.712-1.985,3.679,3.679,0,0,1,1.247-3.246.688.688,0,1,1,.825,1.1,2.315,2.315,0,0,0-.7,2.024,2.993,2.993,0,0,0,.448,1.281,5.275,5.275,0,0,1,2.456-.7.688.688,0,0,1,.673.7.691.691,0,0,1-.687.675,4.125,4.125,0,0,0-2.211.8,3.648,3.648,0,0,0-1.3,2.164A.691.691,0,0,1,179.258,170.666Zm1.586-8.426a.344.344,0,0,0-.206.068,3.323,3.323,0,0,0-1.111,2.94,4.107,4.107,0,0,0,.733,1.94.172.172,0,0,1-.023.222,4.788,4.788,0,0,0-1.319,2.516.344.344,0,0,0,.289.391h0a.342.342,0,0,0,.389-.289,4,4,0,0,1,1.434-2.391,4.484,4.484,0,0,1,2.4-.867.347.347,0,0,0,.353-.337.343.343,0,0,0-.337-.35,4.981,4.981,0,0,0-2.416.733.171.171,0,0,1-.23-.051,3.417,3.417,0,0,1-.593-1.577,2.673,2.673,0,0,1,.836-2.328.343.343,0,0,0-.2-.621Z" transform="translate(-178.57 -161.896)" fill="url(#linear-gradient)"/>
      </g>
    </g>
  </g>
</svg>
