<svg id="noun-hashtag-7044052" xmlns="http://www.w3.org/2000/svg" width="18.669" height="18.024" viewBox="0 0 18.669 18.024">
  <path id="Path_35610" data-name="Path 35610" d="M38.1,26.96a.622.622,0,1,0,0-1.245h-.431l.184-.8a.622.622,0,1,0-1.213-.277L36.4,25.715H34.587l.184-.8a.622.622,0,1,0-1.213-.277l-.247,1.081H31.888a.622.622,0,1,0,0,1.245h1.137L32.6,28.8h-.716a.622.622,0,1,0,0,1.245h.432l-.184.8a.623.623,0,0,0,.468.745.611.611,0,0,0,.139.016.621.621,0,0,0,.606-.484l.247-1.08h1.809l-.184.8a.623.623,0,0,0,.468.745.611.611,0,0,0,.139.016.621.621,0,0,0,.606-.484l.247-1.08H38.1a.622.622,0,1,0,0-1.245H36.968l.421-1.84H38.1ZM35.69,28.8H33.882l.421-1.84h1.809Z" transform="translate(-25.662 -20.286)" fill="#fff"/>
  <path id="Path_35611" data-name="Path 35611" d="M19.927,4.742H4.992A1.869,1.869,0,0,0,3.125,6.609V18.064a1.869,1.869,0,0,0,1.867,1.867H9.509l2,2.389a1.245,1.245,0,0,0,1.91,0l2-2.388h4.517a1.869,1.869,0,0,0,1.867-1.867V6.609a1.869,1.869,0,0,0-1.867-1.867Zm.622,13.322a.623.623,0,0,1-.622.622H15.118a.625.625,0,0,0-.478.223l-2.181,2.612L10.278,18.91a.622.622,0,0,0-.478-.223H4.992a.623.623,0,0,1-.622-.622V6.609a.623.623,0,0,1,.622-.622H19.927a.623.623,0,0,1,.622.622Z" transform="translate(-3.125 -4.742)" fill="#fff"/>
</svg>
