<svg id="menu_image" xmlns="http://www.w3.org/2000/svg" xmlns:xlink="http://www.w3.org/1999/xlink" width="279" height="302" viewBox="0 0 279 302">
  <defs>
    <clipPath id="clip-path">
      <rect id="Rectangle_149" data-name="Rectangle 149" width="279" height="302" transform="translate(7775 511)" fill="#232b37"/>
    </clipPath>
  </defs>
  <g id="Mask_Group_10" data-name="Mask Group 10" transform="translate(-7775 -511)" opacity="0.05" clip-path="url(#clip-path)">
    <g id="Group_29" data-name="Group 29" transform="translate(7780.526 599.089)">
      <path id="Path_69" data-name="Path 69" d="M196.494,142.581c-11.42,11.883-10.386,18.728-22.431,23.349a86.865,86.865,0,0,1-11.482,3.48c-2.793-8.619-9.807-17.176-17.23-17.176a49.873,49.873,0,0,0-17.933,5.7,153.165,153.165,0,0,0-17.747,9.136l3.148,4.221c2.4-1.312,9.306-4.746,16.2-7.716a46.652,46.652,0,0,1,15.062-4.684c5.888,0,9.707,6.682,11.821,12.045a133.185,133.185,0,0,1-24.206,2.276,4.043,4.043,0,0,0-3.025.772,5.031,5.031,0,0,0-1.312,2.677l-.455,1.945h4.1a110.458,110.458,0,0,0,54.461-11.25,19.29,19.29,0,0,0,5.479.849,35.119,35.119,0,0,0,19.862-7.755,4.437,4.437,0,0,0,2.114-3.858,16.593,16.593,0,0,0-.124-1.782l-.224-2.222a32.555,32.555,0,0,1-19.63,9.476,9.731,9.731,0,0,1-2.909-.347,68.83,68.83,0,0,1,28.211-28.882c-1.6-.972-3.858-2.454-5.077-3.256a56.645,56.645,0,0,0-16.683,13Z" transform="translate(1.317 1.413)" fill="#fff"/>
      <path id="Path_70" data-name="Path 70" d="M172.708,145.938c-4.853,0-4.4-8.279-4.745-14.838a95.542,95.542,0,0,0-39.623,13.064l1.374,5.247a75.411,75.411,0,0,1,31.845-11.127c.123,6.273,2.8,14.661,9.939,14.661,7.647,0,16.976-12,27.855-26.042l2.863-3.712c-1.489-1.142-3.133-2.176-4.167-3.133C186.868,134.464,177.169,145.938,172.708,145.938Z" transform="translate(1.522 1.366)" fill="#fff"/>
      <path id="Path_71" data-name="Path 71" d="M143.267,57.542a35.757,35.757,0,0,1-7.315,1.08,24.735,24.735,0,0,1-5.594-.772,23.355,23.355,0,0,0-5.926-.772,18.712,18.712,0,0,0-12.686,4.908,23.488,23.488,0,0,0-6.8,17.516,21.382,21.382,0,0,1-5.864,14.56,154.415,154.415,0,0,0-11.135,16.274c1.1.509,4.684,2.446,5.934,3.133,3.935-5.926,9.414-13.241,13.01-18.781A21.713,21.713,0,0,0,111.684,80.8c.062-1.142.062-2.222.17-3.318A15.178,15.178,0,0,1,116.376,67.2a13.442,13.442,0,0,1,9.537-3.712c3.418,0,5.4.972,8.388.972a13.509,13.509,0,0,0,5.016-1.018l1.1-.4-2.631,6.281,6.173,2.508A34.168,34.168,0,0,0,131.391,97.35a48.855,48.855,0,0,0,1.659,12.346.934.934,0,0,0,.964.772.972.972,0,0,0,1.034-.965l.062-1.312A69.407,69.407,0,0,1,137.1,92.9a39.408,39.408,0,0,1,16.4-21.814l-9.823-4.275,4.221-10.34Z" transform="translate(1.056 0.578)" fill="#fff"/>
      <path id="Path_72" data-name="Path 72" d="M172.053,16.32a5.085,5.085,0,0,0-4.73,5.594c0,1.6.563,3.488,2.569,3.488a9.607,9.607,0,0,0,5.3-2.515c1.543-1.258,2.569-2.276,2.569-3.31s-.91-1.883-2.315-2.508a7.91,7.91,0,0,0-3.395-.748Z" transform="translate(1.938 0.193)" fill="#fff"/>
      <path id="Path_73" data-name="Path 73" d="M149.549,88l-2.739,5.263h29.167L173.817,88Z" transform="translate(1.733 1.008)" fill="#fff"/>
      <path id="Path_74" data-name="Path 74" d="M116.274,40.224c1.543-.918,2.855-2.222,2.855-3.6a2.445,2.445,0,0,0-.91-1.829,5.772,5.772,0,0,0-3.858-1.543,4.707,4.707,0,0,0-4.336,5.139c0,1.883.918,2.963,2.678,2.963a7.5,7.5,0,0,0,3.573-1.127Z" transform="translate(1.265 0.379)" fill="#fff"/>
      <path id="Path_75" data-name="Path 75" d="M284.4,144.272l2.793,1.944a1.8,1.8,0,0,0,1.034.455,1.042,1.042,0,0,0,.972-1.019,1.112,1.112,0,0,0-.456-.856c-8.341-7.593-17.307-16.837-25.7-25.749-6.567-7.022-13.3-14.43-19.237-21.914a1.5,1.5,0,0,0-1.2-.772.941.941,0,0,0-1.019.972c0,.771.563,1.759,1.991,4.167A118.847,118.847,0,0,0,259.9,123.245,163.6,163.6,0,0,0,284.4,144.272Z" transform="translate(2.821 1.095)" fill="#fff"/>
      <path id="Path_77" data-name="Path 77" d="M131.863,71.392a2.408,2.408,0,0,0-1.2-2.053,5.649,5.649,0,0,0-3.249-.972,3.7,3.7,0,0,0-3.858,2.909,6.281,6.281,0,0,0-.27,1.944c0,2.053.91,3.48,2.4,3.48C127.735,76.7,131.863,73.846,131.863,71.392Z" transform="translate(1.456 0.779)" fill="#fff"/>
      <path id="Path_78" data-name="Path 78" d="M53.725,140.855l.417,2.446a2.8,2.8,0,0,0,1.42,2.315,12.3,12.3,0,0,0,5.085.579,58.857,58.857,0,0,0,13.99-1.489,30.533,30.533,0,0,0,25.973,14.445,50.311,50.311,0,0,0,23.689-7.137l-1.435-5.2a47.642,47.642,0,0,1-22.254,7.03A23.3,23.3,0,0,1,80.338,141.9c-2.4-3.642-4.275-8.21-6.574-12.269a11.775,11.775,0,0,0-10.9-7.361A37.385,37.385,0,0,0,48.6,126.333l.224,1.08c.394,1.767,1.1,3.025,2.755,3.025a6.552,6.552,0,0,0,1.883-.455,23.325,23.325,0,0,1,7.531-1.6c4.275,0,6.335,2.508,9.259,8.681l1.1,2.315a62.138,62.138,0,0,1-15.124,1.543Z" transform="translate(0.619 1.426)" fill="#fff"/>
      <path id="Path_80" data-name="Path 80" d="M266.713,30.073h.918c0,.394-.062.857-.062,1.258a10.255,10.255,0,0,0,11.482,11.25,78.045,78.045,0,0,0,20.317-5.023c6.173-2.114,11.814-4.275,14.615-5.077V25.613c-3.195.972-9.7,3.48-16.436,5.818a70.816,70.816,0,0,1-18.1,4.691c-4.452,0-5.7-2.461-5.7-5.949A65.053,65.053,0,0,1,281.1,6.77H274.16A331.539,331.539,0,0,1,248.765,45.3l4.391,4.745a183.138,183.138,0,0,0,13.558-19.977Z" transform="translate(2.86 0.083)" fill="#fff"/>
      <path id="Path_81" data-name="Path 81" d="M219.529,30.044c-5.764-5.54-10.155-11.821-12.956-14.846A36.853,36.853,0,0,0,179.065,0a25.526,25.526,0,0,0-23.982,15.533,52.5,52.5,0,0,1-2.006,5.479c-1.257,2.053-6.944,11.706-9.259,15.525h10.556l-5.139,9.707a68.471,68.471,0,0,1,15.98-2.315c5.077,0,8.735,1.2,10.34,4.4,2.971,5.934,2.971,23.92,7.986,37.455a83.058,83.058,0,0,0,28.944,34.723l.563.185a.972.972,0,0,0,1.018-.918,1.119,1.119,0,0,0-.393-.856A99,99,0,0,1,189.528,83.3c-4.63-12.67-3.858-30.487-7.94-38.419a14.205,14.205,0,0,0-13.642-6.628,47.774,47.774,0,0,0-9.993,1.258l4.63-7.832H154.8c1.651-2.909,3.38-5.594,4.229-7.192.772-1.373,1.034-3.086,1.944-5.4A18.8,18.8,0,0,1,179.065,6.833c10.733,0,16.976,6.945,23.241,13.828A168.779,168.779,0,0,0,215.262,35.5a194.239,194.239,0,0,1,21.683,18.519,196.193,196.193,0,0,1,21.3,26.235,485.11,485.11,0,0,1,55.765,103.668l-.17.108a383.4,383.4,0,0,1-74.215-61.074A231.2,231.2,0,0,1,202,63.8c-.772-1.59-1.373-3.087-2.06-4.63-.27-.625-.563-.772-1.019-.772a.926.926,0,0,0-.98.965,32.92,32.92,0,0,0,.91,4.73,152.611,152.611,0,0,0,38.828,65.773A364.326,364.326,0,0,0,289.747,175.7l12.346,35.286a8.8,8.8,0,0,1,.617,2.631,1.875,1.875,0,0,1-.556,1.489,2.361,2.361,0,0,1-1.828.517h-3.712a3.928,3.928,0,0,1-2.793-.687A4.113,4.113,0,0,1,292.563,213c-1.08-3.31-7.608-21.868-8.851-25.626a1.1,1.1,0,0,0-1.08-.911.957.957,0,0,0-.964.972,25.3,25.3,0,0,0,.455,2.57c1.651,8.442,3.588,17.933,4.391,21.521a24.806,24.806,0,0,1,.772,4.352,2.971,2.971,0,0,1-1.08,2.446l-3.858,3.858c-.911.918-1.412,1.142-2.169,1.142-.918,0-1.659-.617-2.006-2.215-4.337-20.271-10.9-45.4-12.608-52.363-.4-1.543-.687-2.407-1.6-2.407s-1.1.579-1.1,1.265a11.159,11.159,0,0,0,.185,1.6c1.019,7.192,5.185,33.4,9.7,57.324.772,4.113,2.315,6.389,5.888,6.389a6.428,6.428,0,0,0,4.56-2.014c2.315-2.315,3.025-2.963,5.826-5.7a8.071,8.071,0,0,1,6.79-2.739h8.488a5.231,5.231,0,0,0,4.043-1.427,4.86,4.86,0,0,0,1.49-3.766,14.221,14.221,0,0,0-1.08-4.969c-2.169-5.818-9.136-25.51-11.173-31.05l.162-.108a60.688,60.688,0,0,0,22.1,12.346c1.42,0,2.276-.625,2.276-2.855,0-10.51-17.47-53.713-57.378-113.205a185.365,185.365,0,0,0-45.217-47.378Z" transform="translate(1.678 0.004)" fill="#fff"/>
      <path id="Path_82" data-name="Path 82" d="M268.236,69.2a52.925,52.925,0,0,1,19.46-4.908,98.269,98.269,0,0,0,26.035-2.631V56.415a118.655,118.655,0,0,1-17.292,2.508c-2.57,0-3.318-.347-3.318-1.2,0-.509.347-.856,1.312-1.258,6.845-2.909,19.129-7.832,26.235-10.394V39.131a495.267,495.267,0,0,0-56.174,24.831C264.926,64.51,267.9,68.684,268.236,69.2Z" transform="translate(3.096 0.462)" fill="#fff"/>
      <path id="Path_83" data-name="Path 83" d="M75.562,68.512A111.886,111.886,0,0,0,56.271,102.88a45.528,45.528,0,0,1,4.63-.231c.918,0,1.659,0,2.855.062l.849-1.829a129.307,129.307,0,0,1,16.675-28.65l2.57-3.025a56.136,56.136,0,0,0,15.363-26.49A20.933,20.933,0,0,1,104,31.705a13.233,13.233,0,0,1,9.306-3.6,19.089,19.089,0,0,1,8.048,1.991,13.566,13.566,0,0,0,6.8,1.428c1.019,0,1.759-.062,2.446-.108l-4,5.4,5.4,3.858a19.592,19.592,0,0,0-11.574,11.574,4.323,4.323,0,0,0-.347,1.428.833.833,0,0,0,.911.91c.772,0,1.312-.563,2.315-1.713a30.44,30.44,0,0,1,18.156-10.556l-8.65-6.6,6.513-9.53h-6.111a20.957,20.957,0,0,1-9.823-1.6,22.931,22.931,0,0,0-10.965-3.025,19.075,19.075,0,0,0-13.187,5.185,28.75,28.75,0,0,0-7.138,14.962A41.775,41.775,0,0,1,86.287,55.6C83.61,59.445,81.681,61.328,75.562,68.512Z" transform="translate(0.704 0.225)" fill="#fff"/>
      <path id="Path_84" data-name="Path 84" d="M26.775,47.331c-13.982,0-19.923,6.736-19.923,11.243A11.806,11.806,0,0,0,.007,69.2,14.074,14.074,0,0,0,14.452,83.76a12.9,12.9,0,0,0,7.485-2.57,15.826,15.826,0,0,0,5.131.772A13.3,13.3,0,0,0,38.5,76.082a9.536,9.536,0,0,0,1.312.062,13.573,13.573,0,0,0,11.644-7.655,5.826,5.826,0,0,0,.772-2.562c0-.625-.285-1.142-.911-1.142-.772,0-.918.772-2.315,2.053a19.491,19.491,0,0,1-13.118,4,10.857,10.857,0,0,1-8.959,5.479,11.3,11.3,0,0,1-6.628-2.053,7.539,7.539,0,0,1-5.7,2.57,7.377,7.377,0,0,1-7.716-7.716,7.716,7.716,0,0,1,4.908-7.138c.509-5.656,6.551-9.476,14.1-9.476a25.147,25.147,0,0,1,2.971.17,10.88,10.88,0,0,1,7.77-4.275A6.882,6.882,0,0,0,38.5,48.01a1.381,1.381,0,0,0,.085-2.315,7.3,7.3,0,0,0-1.883-.509,13.2,13.2,0,0,1-10.031-8.334A14.8,14.8,0,0,1,11.728,22.192v-.579A7.666,7.666,0,0,1,14.522,6.805a7.817,7.817,0,0,1,6.227,3.133,14.321,14.321,0,0,1,3.858-.455A14.4,14.4,0,0,1,39.175,21.428,11.852,11.852,0,0,1,49.87,32.045c.27,1.489.509,2.739,1.489,2.739s1.258-1.142,1.6-2.678a11.868,11.868,0,0,1,3.858-7.084A13.573,13.573,0,0,1,70.349,11.134,7.716,7.716,0,0,1,85.01,14.39a7.508,7.508,0,0,1-3.087,6.173,15.649,15.649,0,0,1,.679,4.059,10.247,10.247,0,0,1-8.1,9.931,14.707,14.707,0,0,1-4,7.485c-3.426,3.318-6.945,3.318-6.945,4.684,0,.772.509,1.2,1.944,1.2A12.508,12.508,0,0,0,78.868,38.45a14.661,14.661,0,0,0,9.707-12.979,7.238,7.238,0,0,0-.625-3.364,11.4,11.4,0,0,0,3.6-8.388,14,14,0,0,0-25.564-7.6A16.459,16.459,0,0,0,51.706,22.9h-.833A7.763,7.763,0,0,0,43.8,16.983,17.6,17.6,0,0,0,27.061,3.665a24.236,24.236,0,0,0-3.364.2A13.442,13.442,0,0,0,14.105.007,14.051,14.051,0,0,0,.007,14.1,12.986,12.986,0,0,0,6.458,25.363l-.062.918A17.886,17.886,0,0,0,23.372,42.37,5.262,5.262,0,0,0,27.6,46.536v.772h-.826Z" transform="translate(0.052 0.001)" fill="#fff"/>
      <path id="Path_86" data-name="Path 86" d="M49.39,47.605a144.479,144.479,0,0,1,12.9,24.214,53.019,53.019,0,0,1,4.452-6A96.818,96.818,0,0,0,52.006,45.051Z" transform="translate(0.624 0.53)" fill="#fff"/>
      <path id="Path_87" data-name="Path 87" d="M189.563,111.99a52.129,52.129,0,0,1-19.113,4.329,79.681,79.681,0,0,1-10.741-.771,103.21,103.21,0,0,0-12.269-1.08,33.858,33.858,0,0,0-20.61,5.656l3.148,4.113a47.071,47.071,0,0,1,16.775-3.48,82.768,82.768,0,0,1,10.733.849,98.957,98.957,0,0,0,13.118,1.08,50.426,50.426,0,0,0,22.894-6.736,37.178,37.178,0,0,1-3.935-3.958Z" transform="translate(1.505 1.285)" fill="#fff"/>
      <path id="Path_88" data-name="Path 88" d="M120.346,119.78l-3.31-4.29c-12.793,4.915-27.007,12.848-27.007,20.957,0,4.63,3.426,8.272,11.127,8.272a73.668,73.668,0,0,0,33.01-11.011l-1.373-1.883a2.778,2.778,0,0,0-2.57-1.489,5.071,5.071,0,0,0-2.052.563,62.456,62.456,0,0,1-25.579,8.11c-4.807,0-6-1.474-6-3.549C96.6,129.649,112.468,122.905,120.346,119.78Z" transform="translate(1.075 1.327)" fill="#fff"/>
      <path id="Path_91" data-name="Path 91" d="M58.853,204.679a26.011,26.011,0,0,1-12.732,3.264,4.014,4.014,0,0,0-3.195.972,4.213,4.213,0,0,0-1.034,3.133v1.991H43.32a33.258,33.258,0,0,0,22.493-7.3L91.1,186.978a33.326,33.326,0,0,0,23.4,9.846,56.176,56.176,0,0,0,15.525-2.9,63.108,63.108,0,0,1,17.809-2.06H174.6a48.965,48.965,0,0,0,27.632-6.945,89.7,89.7,0,0,0,37.038-41.274c-2.006-1.266-3.858-2.407-5.479-3.488a87.587,87.587,0,0,1-34.947,38.767,42.678,42.678,0,0,1-24.376,5.934H147.837a76.051,76.051,0,0,0-20.2,2.446,47.443,47.443,0,0,1-13.3,2.631,26.289,26.289,0,0,1-17.878-7.254l6.289-4.969-3.133-4.167c-1.829,1.312-24.152,17.809-28.836,21.521l-.27-.17a31.639,31.639,0,0,0,.108-3.187c0-12.562-5.826-15.587-14.661-19.129l-6,3.549c12.153,4.043,15.178,7.3,15.178,16.382a12.045,12.045,0,0,1-6.281,12.168Z" transform="translate(0.521 1.646)" fill="#fff"/>
      <path id="Path_92" data-name="Path 92" d="M2.367,196.625c4.275,0,4.784-2.569,4.784-5.023,0-1.651-.054-3.542-.054-5.594a11.266,11.266,0,0,1,7.878-12.392c3.086-1.366,18.2-7.531,29.461-12.346a24.736,24.736,0,0,1,9.823-2.616,27.988,27.988,0,0,1,13.7,4.915A57.47,57.47,0,0,1,81.265,174.3l4.846-3.711a63.366,63.366,0,0,0-15.695-12.724,31.938,31.938,0,0,0-15.24-5.4,18.073,18.073,0,0,0-4.746.687,17.749,17.749,0,0,1-4.807.857,7.717,7.717,0,0,1-6.452-3.481c-.964-1.079-7.137-8.1-8.441-10.153a9.822,9.822,0,0,1-1.767-5.2,6.5,6.5,0,0,1,.772-3.133,39.354,39.354,0,0,0,19.877,7.593l-1.1-5.4c-11.466-3.025-23.7-13.118-23.7-19.638a8.488,8.488,0,0,1,.849-3.55,39.353,39.353,0,0,0,20.479,8.364,20.525,20.525,0,0,0,7.986-2.006,19.42,19.42,0,0,1,7.647-1.8,69.564,69.564,0,0,1,24.26,6.9,4.31,4.31,0,0,0,1.474.293,3.04,3.04,0,0,0,2.863-1.782l1.034-1.883A78.314,78.314,0,0,0,61.5,108.606a20.225,20.225,0,0,0-7.986,1.767,20.265,20.265,0,0,1-7.161,2.091c-5.764,0-20.548-5.7-20.548-11.25,0-6.513,23.511-9.02,26.1-9.02l2.315-5.309c-17.061,0-37.393,5.988-37.393,13.889,0,2.315,1.312,3.418,1.312,5.533,0,2.863-1.312,4.807-1.312,7.986a15.217,15.217,0,0,0,2.739,7.138c1.6,2.461,3.488,4.059,3.488,6.119a51.983,51.983,0,0,0-1.034,6.945c0,7.716,4.4,12.392,12.956,21.605l1.713,1.829c-7.084,2.739-20.271,8.442-23.349,9.761a17.585,17.585,0,0,0-13.28,18.5c0,3.31,0,7.068.224,10.44H2.367Z" transform="translate(0.008 0.965)" fill="#fff"/>
      <path id="Path_102" data-name="Path 102" d="M73.569,19.541a.949.949,0,0,0-.964-.911c-.525,0-.772.347-1.312.772a59.388,59.388,0,0,0-6.173,6.111,44.755,44.755,0,0,0-7.361,12.346l3.087,1.883c2.114-3.148,8.912-13.889,12.392-19.291a1.752,1.752,0,0,0,.332-.911Z" transform="translate(0.706 0.221)" fill="#fff"/>
      <path id="Path_107" data-name="Path 107" d="M20.15,65.314a.887.887,0,0,0,.91.911,4.406,4.406,0,0,0,1.489-.455l20.888-7.084L42.419,55.26a43.613,43.613,0,0,0-21.7,9.074C20.312,64.689,20.15,64.921,20.15,65.314Z" transform="translate(0.288 0.637)" fill="#fff"/>
      <path id="Path_108" data-name="Path 108" d="M32.848,24.966a46.808,46.808,0,0,0-11.011-6.173l-.772-.17a.849.849,0,0,0-.911.857c0,.347.108.625.625,1.08C25.749,24.781,35.341,32.836,38.3,35.282l2.384-2.739A52.262,52.262,0,0,0,32.848,24.966Z" transform="translate(0.252 0.229)" fill="#fff"/>
    </g>
  </g>
</svg>
