<svg xmlns="http://www.w3.org/2000/svg" width="16.782" height="16.846" viewBox="0 0 16.782 16.846">
  <g id="noun-library-7934737" transform="translate(0.157 0.125)">
    <path id="Path_35591" data-name="Path 35591" d="M26.83,14.843a1.8,1.8,0,0,1,1.8,1.8v4.2a4.525,4.525,0,0,0,1.406,1.323l.509.3.032.021a.54.54,0,0,1,0,.884l-.032.021-.509.3a4.525,4.525,0,0,0-1.406,1.323v4.56a1.8,1.8,0,0,1-1.8,1.8H24.494a1.8,1.8,0,0,1-1.8-1.8V19.236L20.16,30.063a1.772,1.772,0,0,1-2.155,1.319l-2.319-.572a1.822,1.822,0,0,1-1.335-2.18L17.01,17.28a1.771,1.771,0,0,1,2.154-1.319l2.319.572a1.816,1.816,0,0,1,1.213,1V16.64a1.8,1.8,0,0,1,1.8-1.8ZM15.049,28.8a1.093,1.093,0,0,0,.8,1.308l2.319.572a1.064,1.064,0,0,0,1.293-.792l.67-2.86L15.72,25.943Zm8.366.778a1.078,1.078,0,0,0,1.078,1.078H26.83a1.078,1.078,0,0,0,1.078-1.078V28.5H23.415Zm0-1.8h4.493V26.079a.511.511,0,0,1-.651-.279l-.036-.082A4.526,4.526,0,0,0,25.5,23.746l-.075-.047-.509-.3a.54.54,0,0,1,0-.926l.509-.3a4.524,4.524,0,0,0,1.833-2.1l.018-.038a.512.512,0,0,1,.633-.242V18.438H23.415Zm-7.532-2.542L20.3,26.331l.991-4.231-4.413-1.087Zm11.846-4.5a5.246,5.246,0,0,1-1.935,2.038l-.252.151.252.151a5.252,5.252,0,0,1,1.935,2.038,5.246,5.246,0,0,1,1.935-2.038l.252-.151-.252-.151A5.239,5.239,0,0,1,27.729,20.742ZM19,16.662a1.064,1.064,0,0,0-1.293.792l-.67,2.86L21.451,21.4l.67-2.86a1.094,1.094,0,0,0-.8-1.308Zm5.493-1.1a1.078,1.078,0,0,0-1.078,1.078v1.078h4.493V16.641a1.078,1.078,0,0,0-1.078-1.078Z" transform="translate(-14.304 -14.843)" fill="#fff" stroke="#fff" stroke-width="0.25"/>
  </g>
</svg>
