<svg id="upload_icon" xmlns="http://www.w3.org/2000/svg" width="39.008" height="38.008" viewBox="0 0 39.008 38.008">
  <path id="Path_35627" data-name="Path 35627" d="M12.844,32.513a1.25,1.25,0,0,1,0,2.5,9.649,9.649,0,0,1-1.8-19.128,11.653,11.653,0,0,1,23.3,0,9.648,9.648,0,0,1-1.8,19.127,1.25,1.25,0,0,1,0-2.5,7.15,7.15,0,0,0,.438-14.288L31.7,18.147l.15-2.095a9.154,9.154,0,1,0-18.271.822l.112,1.276-1.284.076a7.15,7.15,0,0,0,.438,14.286Zm9.221-8.643L16.689,29.19a1.25,1.25,0,0,0,1.768,1.768l2.99-2.99v13.2a1.25,1.25,0,0,0,2.5,0v-13.2l2.99,2.99A1.25,1.25,0,0,0,28.7,29.19l-5.124-5.124a1.249,1.249,0,0,0-1.515-.2Z" transform="translate(-3.188 -4.39)" fill="#00a0df" fill-rule="evenodd"/>
</svg>
